<svg width="70" height="83" viewBox="0 0 70 83" fill="none" xmlns="http://www.w3.org/2000/svg">
  <g clip-path="url(#clip0_15_2)">
  <path d="M47.7801 51.87L30.6401 35L30.8701 34.34C34.6301 34.34 38.3901 34.49 42.1301 34.29C43.2653 34.1905 44.4078 34.3626 45.4633 34.7921C46.5188 35.2216 47.4569 35.8962 48.2001 36.76C54.9201 43.66 61.8001 50.4 68.6501 57.17C69.5601 58.08 70.1001 58.59 68.8301 59.83C61.5201 67 54.3101 74.19 47.1101 81.44C46.6712 81.9227 46.1302 82.3015 45.5265 82.5489C44.9228 82.7963 44.2715 82.906 43.6201 82.87C39.3401 82.78 35.0501 82.87 30.1401 82.87L47.1401 66.17C46.2901 65.1 45.4801 65.45 44.8001 65.45C38.3201 65.45 31.8001 65.37 25.3501 65.45C23.6501 65.45 23.2201 64.92 23.2701 63.33C23.3801 60.18 23.4001 57.02 23.2701 53.88C23.2001 52.17 23.8501 51.88 25.4201 51.88C32.6201 51.91 39.8401 51.87 47.7801 51.87Z" fill="#DB3B36"/>
  <path d="M38.8101 48.48C34.0901 48.48 29.3801 48.48 24.6601 48.48C24.2921 48.4481 23.9357 48.3357 23.616 48.1508C23.2963 47.9659 23.0212 47.713 22.8101 47.41C15.5101 40.15 8.23005 32.87 0.880051 25.65C-0.249949 24.54 -0.319949 23.94 0.880051 22.78C8.22005 15.58 15.4901 8.29 22.7801 1C23.0428 0.687981 23.3703 0.436906 23.7399 0.264218C24.1094 0.0915296 24.5121 0.00136916 24.9201 0C29.4101 0 33.92 0 38.71 0L21.8801 16.54C22.7601 17.88 23.5801 17.54 24.2601 17.54C30.8301 17.54 37.4001 17.63 43.9701 17.54C45.7601 17.54 46.2201 18.04 46.1301 19.76C45.97 22.6578 45.97 25.5622 46.1301 28.46C46.2501 30.46 45.77 31.16 43.6 31.1C37.45 30.93 31.3001 31.04 25.1401 31.04H22.6301L39.6301 47.45L38.8101 48.48Z" fill="#0D0B0A"/>
  </g>
  <defs>
  <clipPath id="clip0_15_2">
  <rect width="69.58" height="82.87" fill="white"/>
  </clipPath>
  </defs>
  </svg>
  